{"title":"Step.Up.2006.DVDrip.x264.AC3.RoSubbed-playSD","uid":12497353,"size":973008097,"categoryP":"video","categoryS":"movies","magnet":"?xt=urn:btih:aa4d8742698701540b3ddf55b081566f77e09e8d&amp;dn=Step.Up.2006.DVDrip.x264.AC3.RoSubbed-playSD&amp;tr=udp%3A%2F%2Ftracker.leechers-paradise.org%3A6969&amp;tr=udp%3A%2F%2Fzer0day.ch%3A1337&amp;tr=udp%3A%2F%2Fopen.demonii.com%3A1337&amp;tr=udp%3A%2F%2Ftracker.coppersurfer.tk%3A6969&amp;tr=udp%3A%2F%2Fexodus.desync.com%3A6969","seeders":0,"leechers":1,"uploader":"TvTeam","files":5,"time":1443301480,"description":"------------------------------------------------------------------------\r\n\r  https://www.torrenting.com\r\n\r\nSign up is OPEN - for time being. Come and have fun.\r\n\r\n------------------------------------------------------------------------General\r\nUnique ID                                : 251920503146220189934629557879613443964 (0xBD861FC27D955A309CE158EED2E04F7C)\r\nComplete name                            : F:UploadStep.Up.2006.DVDrip.x264.AC3.RoSubbed-playSDStep.Up.2006.DVDrip.x264.AC3.RoSubbed-playSD.mkv\r\nFormat                                   : Matroska\r\nFormat version                           : Version 4 / Version 2\r\nFile size                                : 918 MiB\r\nDuration                                 : 1h 43mn\r\nOverall bit rate                         : 1 239 Kbps\r\nEncoded date                             : UTC 2015-09-14 16:07:41\r\nWriting application                      : mkvmerge v8.2.0 ('World of Adventure') 64bit\r\nWriting library                          : libebml v1.3.1 + libmatroska v1.4.2\r\nDURATION                                 : 01:43:33.856000000\r\nNUMBER_OF_FRAMES                         : 194183\r\nNUMBER_OF_BYTES                          : 298265088\r\n_STATISTICS_WRITING_APP                  : mkvmerge v8.2.0 ('World of Adventure') 64bit\r\n_STATISTICS_WRITING_DATE_UTC             : 2015-09-14 16:07:41\r\n_STATISTICS_TAGS                         : BPS DURATION NUMBER_OF_FRAMES NUMBER_OF_BYTES\r\n\r\nVideo\r\nID                                       : 1\r\nFormat                                   : AVC\r\nFormat/Info                              : Advanced Video Codec\r\nFormat profile                           :   \r\nFormat settings, CABAC                   : Yes\r\nFormat settings, ReFrames                : 4 frames\r\nCodec ID                                 : V_MPEG4/ISO/AVC\r\nDuration                                 : 1h 43mn\r\nBit rate                                 : 831 Kbps\r\nWidth                                    : 720 pixels\r\nHeight                                   : 306 pixels\r\nDisplay aspect ratio                     : 2.35:1\r\nFrame rate mode                          : Constant\r\nFrame rate                               : 29.970 fps\r\nColor space                              : YUV\r\nChroma subsampling                       : 4:2:0\r\nBit depth                                : 8 bits\r\nScan type                                : Progressive\r\nBits/(Pixel*Frame)                       : 0.126\r\nStream size                              : 615 MiB (67%)\r\nWriting library                          : x264 core 125 r2200 999b753\r\nEncoding settings                        : cabac=1 / ref=5 / deblock=1:-3:-3 / analyse=0x3:0x113 / me=umh / subme=8 / psy=1 / psy_rd=0.00:0.00 / mixed_ref=1 / me_range=16 / chroma_me=1 / trellis=2 / 8x8dct=1 / cqm=0 / deadzone=21,11 / fast_pskip=1 / chroma_qp_offset=0 / threads=6 / lookahead_threads=1 / sliced_threads=0 / nr=0 / decimate=1 / interlaced=0 / bluray_compat=0 / constrained_intra=0 / bframes=5 / b_pyramid=1 / b_adapt=2 / b_bias=0 / direct=3 / weightb=1 / open_gop=0 / weightp=2 / keyint=300 / keyint_min=29 / scenecut=40 / intra_refresh=0 / rc_lookahead=50 / rc=crf / mbtree=1 / crf=19.0 / qcomp=0.60 / qpmin=0 / qpmax=69 / qpstep=4 / ip_ratio=1.40 / aq=1:1.00\r\nDefault                                  : Yes\r\nForced                                   : No\r\n\r\nAudio\r\nID                                       : 2\r\nFormat                                   : AC-3\r\nFormat/Info                              : Audio Coding 3\r\nMode extension                           : CM (complete main)\r\nFormat settings, Endianness              : Big\r\nCodec ID                                 : A_AC3\r\nDuration                                 : 1h 43mn\r\nBit rate mode                            : Constant\r\nBit rate                                 : 384 Kbps\r\nChannel(s)                               : 6 channels\r\nChannel positions                        : Front: L C R, Side: L R, LFE\r\nSampling rate                            : 48.0 KHz\r\nCompression mode                         : Lossy\r\nStream size                              : 284 MiB (31%)\r\nDefault                                  : Yes\r\nForced                                   : No","torrent":{"xt":"urn:btih:aa4d8742698701540b3ddf55b081566f77e09e8d","amp;dn":"Step.Up.2006.DVDrip.x264.AC3.RoSubbed-playSD","amp;tr":["udp%3A%2F%2Ftracker.leechers-paradise.org%3A6969","udp%3A%2F%2Fzer0day.ch%3A1337","udp%3A%2F%2Fopen.demonii.com%3A1337","udp%3A%2F%2Ftracker.coppersurfer.tk%3A6969","udp%3A%2F%2Fexodus.desync.com%3A6969"],"infoHash":"aa4d8742698701540b3ddf55b081566f77e09e8d","infoHashBuffer":{"type":"Buffer","data":[170,77,135,66,105,135,1,84,11,61,223,85,176,129,86,111,119,224,158,141]},"announce":[],"urlList":[]}}